<?xml version="1.0" encoding="UTF-8"?>
<!DOCTYPE svg PUBLIC "-//W3C//DTD SVG 1.1//EN" "http://www.w3.org/Graphics/SVG/1.1/DTD/svg11.dtd">
<svg xmlns="http://www.w3.org/2000/svg" version="1.1" width="256px" height="256px" style="shape-rendering:geometricPrecision; text-rendering:geometricPrecision; image-rendering:optimizeQuality; fill-rule:evenodd; clip-rule:evenodd" xmlns:xlink="http://www.w3.org/1999/xlink">
<g><path style="opacity:1" fill="#ed00fe" d="M 34.5,-0.5 C 107.5,-0.5 180.5,-0.5 253.5,-0.5C 253.833,0.5 254.5,1.16667 255.5,1.5C 255.5,74.5 255.5,147.5 255.5,220.5C 252.282,240.052 240.948,251.718 221.5,255.5C 158.5,255.5 95.5,255.5 32.5,255.5C 14.5,251.5 3.5,240.5 -0.5,222.5C -0.5,159.5 -0.5,96.5 -0.5,33.5C 3.28159,14.0518 14.9483,2.71843 34.5,-0.5 Z"/></g>
<g><path style="opacity:1" fill="#000000" d="M 30.5,7.5 C 84.8333,7.5 139.167,7.5 193.5,7.5C 193.333,21.1707 193.5,34.8374 194,48.5C 194.833,52 197,54.1667 200.5,55C 216.163,55.4999 231.83,55.6666 247.5,55.5C 247.667,111.834 247.5,168.168 247,224.5C 243.5,236 236,243.5 224.5,247C 159.833,247.667 95.1667,247.667 30.5,247C 19,243.5 11.5,236 8,224.5C 7.33333,159.833 7.33333,95.1667 8,30.5C 11.684,18.9837 19.184,11.3171 30.5,7.5 Z"/></g>
<g><path style="opacity:1" fill="#010001" d="M 205.5,17.5 C 206.5,17.5 207.5,17.5 208.5,17.5C 208.655,22.895 209.322,28.2283 210.5,33.5C 212.3,29.4108 213.466,25.0775 214,20.5C 215.826,16.9626 218.16,16.6293 221,19.5C 224.235,37.7613 226.068,37.0946 226.5,17.5C 227.5,17.5 228.5,17.5 229.5,17.5C 229.404,23.198 228.904,28.8646 228,34.5C 225.602,37.0544 223.269,37.0544 221,34.5C 220.363,29.6631 219.197,24.9964 217.5,20.5C 216.061,25.4625 214.728,30.4625 213.5,35.5C 211.051,36.9097 208.884,36.5763 207,34.5C 206.243,28.8507 205.743,23.184 205.5,17.5 Z"/></g>
<g><path style="opacity:1" fill="#000000" d="M 234.5,21.5 C 237.5,21.5 240.5,21.5 243.5,21.5C 243.5,22.5 243.5,23.5 243.5,24.5C 240.5,24.5 237.5,24.5 234.5,24.5C 234.5,25.5 234.5,26.5 234.5,27.5C 237.32,27.2475 239.986,27.7475 242.5,29C 244.059,31.6417 243.725,33.975 241.5,36C 238.183,36.4983 234.85,36.665 231.5,36.5C 231.5,35.5 231.5,34.5 231.5,33.5C 234.833,33.5 238.167,33.5 241.5,33.5C 241.5,32.5 241.5,31.5 241.5,30.5C 238.07,30.8935 234.904,30.2268 232,28.5C 231.162,25.5193 231.995,23.1859 234.5,21.5 Z"/></g>
<g><path style="opacity:1" fill="#98797f" d="M 61.5,72.5 C 61.5,77.5 61.5,82.5 61.5,87.5C 64.1667,87.5 66.8333,87.5 69.5,87.5C 69.5,82.5 69.5,77.5 69.5,72.5C 84.8333,72.5 100.167,72.5 115.5,72.5C 115.5,74.8333 115.5,77.1667 115.5,79.5C 110.167,79.5 104.833,79.5 99.5,79.5C 99.5,82.1667 99.5,84.8333 99.5,87.5C 94.5,87.5 89.5,87.5 84.5,87.5C 84.5,90.1667 84.5,92.8333 84.5,95.5C 79.5,95.5 74.5,95.5 69.5,95.5C 69.5,97.8333 69.5,100.167 69.5,102.5C 64.1667,102.5 58.8333,102.5 53.5,102.5C 53.5,100.167 53.5,97.8333 53.5,95.5C 48.5,95.5 43.5,95.5 38.5,95.5C 38.5,92.8333 38.5,90.1667 38.5,87.5C 33.5,87.5 28.5,87.5 23.5,87.5C 23.5,82.5 23.5,77.5 23.5,72.5C 36.1667,72.5 48.8333,72.5 61.5,72.5 Z"/></g>
<g><path style="opacity:1" fill="#939393" d="M 61.5,72.5 C 64.1667,72.5 66.8333,72.5 69.5,72.5C 69.5,77.5 69.5,82.5 69.5,87.5C 66.8333,87.5 64.1667,87.5 61.5,87.5C 61.5,82.5 61.5,77.5 61.5,72.5 Z"/></g>
<g><path style="opacity:1" fill="#000000" d="M 115.5,79.5 C 115.5,82.1667 115.5,84.8333 115.5,87.5C 110.167,87.5 104.833,87.5 99.5,87.5C 99.5,84.8333 99.5,82.1667 99.5,79.5C 104.833,79.5 110.167,79.5 115.5,79.5 Z"/></g>
<g><path style="opacity:1" fill="#72202f" d="M 115.5,79.5 C 118.167,79.5 120.833,79.5 123.5,79.5C 123.5,82.1667 123.5,84.8333 123.5,87.5C 120.833,87.5 118.167,87.5 115.5,87.5C 115.5,84.8333 115.5,82.1667 115.5,79.5 Z"/></g>
<g><path style="opacity:1" fill="#bc314c" d="M 123.5,79.5 C 125.833,79.5 128.167,79.5 130.5,79.5C 130.5,82.1667 130.5,84.8333 130.5,87.5C 128.167,87.5 125.833,87.5 123.5,87.5C 123.5,84.8333 123.5,82.1667 123.5,79.5 Z"/></g>
<g><path style="opacity:1" fill="#000000" d="M 99.5,87.5 C 99.5,90.1667 99.5,92.8333 99.5,95.5C 94.5,95.5 89.5,95.5 84.5,95.5C 84.5,92.8333 84.5,90.1667 84.5,87.5C 89.5,87.5 94.5,87.5 99.5,87.5 Z"/></g>
<g><path style="opacity:1" fill="#72202f" d="M 99.5,87.5 C 104.833,87.5 110.167,87.5 115.5,87.5C 115.5,92.5 115.5,97.5 115.5,102.5C 112.833,102.5 110.167,102.5 107.5,102.5C 107.5,100.167 107.5,97.8333 107.5,95.5C 104.833,95.5 102.167,95.5 99.5,95.5C 99.5,92.8333 99.5,90.1667 99.5,87.5 Z"/></g>
<g><path style="opacity:1" fill="#00fbfe" d="M 115.5,87.5 C 118.167,87.5 120.833,87.5 123.5,87.5C 123.5,92.5 123.5,97.5 123.5,102.5C 120.833,102.5 118.167,102.5 115.5,102.5C 115.5,97.5 115.5,92.5 115.5,87.5 Z"/></g>
<g><path style="opacity:1" fill="#72202f" d="M 123.5,87.5 C 125.833,87.5 128.167,87.5 130.5,87.5C 130.5,92.5 130.5,97.5 130.5,102.5C 128.167,102.5 125.833,102.5 123.5,102.5C 123.5,97.5 123.5,92.5 123.5,87.5 Z"/></g>
<g><path style="opacity:1" fill="#00fbfe" d="M 151.5,93.5 C 153.167,93.5 154.833,93.5 156.5,93.5C 156.5,115.167 156.5,136.833 156.5,158.5C 154.833,158.5 153.167,158.5 151.5,158.5C 151.5,136.833 151.5,115.167 151.5,93.5 Z"/></g>
<g><path style="opacity:1" fill="#00fbfe" d="M 184.5,93.5 C 186.167,93.5 187.833,93.5 189.5,93.5C 189.5,115.167 189.5,136.833 189.5,158.5C 187.833,158.5 186.167,158.5 184.5,158.5C 184.5,136.833 184.5,115.167 184.5,93.5 Z"/></g>
<g><path style="opacity:1" fill="#00fbfe" d="M 205.5,93.5 C 209.167,93.5 212.833,93.5 216.5,93.5C 216.5,115.167 216.5,136.833 216.5,158.5C 212.833,158.5 209.167,158.5 205.5,158.5C 205.5,136.833 205.5,115.167 205.5,93.5 Z"/></g>
<g><path style="opacity:1" fill="#bc314c" d="M 38.5,95.5 C 38.5,97.8333 38.5,100.167 38.5,102.5C 43.5,102.5 48.5,102.5 53.5,102.5C 53.5,112.833 53.5,123.167 53.5,133.5C 48.5,133.5 43.5,133.5 38.5,133.5C 38.5,130.833 38.5,128.167 38.5,125.5C 33.5,125.5 28.5,125.5 23.5,125.5C 23.5,115.5 23.5,105.5 23.5,95.5C 28.5,95.5 33.5,95.5 38.5,95.5 Z"/></g>
<g><path style="opacity:1" fill="#000000" d="M 38.5,95.5 C 43.5,95.5 48.5,95.5 53.5,95.5C 53.5,97.8333 53.5,100.167 53.5,102.5C 48.5,102.5 43.5,102.5 38.5,102.5C 38.5,100.167 38.5,97.8333 38.5,95.5 Z"/></g>
<g><path style="opacity:1" fill="#000000" d="M 84.5,95.5 C 84.5,97.8333 84.5,100.167 84.5,102.5C 79.5,102.5 74.5,102.5 69.5,102.5C 69.5,100.167 69.5,97.8333 69.5,95.5C 74.5,95.5 79.5,95.5 84.5,95.5 Z"/></g>
<g><path style="opacity:1" fill="#72202f" d="M 84.5,95.5 C 89.5,95.5 94.5,95.5 99.5,95.5C 99.5,100.5 99.5,105.5 99.5,110.5C 97.1667,110.5 94.8333,110.5 92.5,110.5C 92.5,107.833 92.5,105.167 92.5,102.5C 89.8333,102.5 87.1667,102.5 84.5,102.5C 84.5,100.167 84.5,97.8333 84.5,95.5 Z"/></g>
<g><path style="opacity:1" fill="#00fbfe" d="M 99.5,95.5 C 102.167,95.5 104.833,95.5 107.5,95.5C 107.5,97.8333 107.5,100.167 107.5,102.5C 110.167,102.5 112.833,102.5 115.5,102.5C 115.5,105.167 115.5,107.833 115.5,110.5C 110.167,110.5 104.833,110.5 99.5,110.5C 99.5,105.5 99.5,100.5 99.5,95.5 Z"/></g>
<g><path style="opacity:1" fill="#fe00ff" d="M 162.5,98.5 C 166.167,98.5 169.833,98.5 173.5,98.5C 173.5,116.5 173.5,134.5 173.5,152.5C 169.833,152.5 166.167,152.5 162.5,152.5C 162.5,134.5 162.5,116.5 162.5,98.5 Z"/></g>
<g><path style="opacity:1" fill="#fe00ff" d="M 194.5,98.5 C 196.5,98.5 198.5,98.5 200.5,98.5C 200.5,116.5 200.5,134.5 200.5,152.5C 198.5,152.5 196.5,152.5 194.5,152.5C 194.5,134.5 194.5,116.5 194.5,98.5 Z"/></g>
<g><path style="opacity:1" fill="#fe00ff" d="M 222.5,98.5 C 224.167,98.5 225.833,98.5 227.5,98.5C 227.5,116.5 227.5,134.5 227.5,152.5C 225.833,152.5 224.167,152.5 222.5,152.5C 222.5,134.5 222.5,116.5 222.5,98.5 Z"/></g>
<g><path style="opacity:1" fill="#72202f" d="M 69.5,102.5 C 74.5,102.5 79.5,102.5 84.5,102.5C 84.5,107.833 84.5,113.167 84.5,118.5C 81.8333,118.5 79.1667,118.5 76.5,118.5C 76.5,115.833 76.5,113.167 76.5,110.5C 74.1667,110.5 71.8333,110.5 69.5,110.5C 69.5,107.833 69.5,105.167 69.5,102.5 Z"/></g>
<g><path style="opacity:1" fill="#00fbfe" d="M 84.5,102.5 C 87.1667,102.5 89.8333,102.5 92.5,102.5C 92.5,105.167 92.5,107.833 92.5,110.5C 94.8333,110.5 97.1667,110.5 99.5,110.5C 99.5,113.167 99.5,115.833 99.5,118.5C 94.5,118.5 89.5,118.5 84.5,118.5C 84.5,113.167 84.5,107.833 84.5,102.5 Z"/></g>
<g><path style="opacity:1" fill="#72202f" d="M 115.5,102.5 C 118.167,102.5 120.833,102.5 123.5,102.5C 123.5,105.167 123.5,107.833 123.5,110.5C 120.833,110.5 118.167,110.5 115.5,110.5C 115.5,107.833 115.5,105.167 115.5,102.5 Z"/></g>
<g><path style="opacity:1" fill="#bc314c" d="M 123.5,102.5 C 125.833,102.5 128.167,102.5 130.5,102.5C 130.5,105.167 130.5,107.833 130.5,110.5C 128.167,110.5 125.833,110.5 123.5,110.5C 123.5,107.833 123.5,105.167 123.5,102.5 Z"/></g>
<g><path style="opacity:1" fill="#72202f" d="M 69.5,110.5 C 69.5,115.5 69.5,120.5 69.5,125.5C 74.5,125.5 79.5,125.5 84.5,125.5C 84.5,128.167 84.5,130.833 84.5,133.5C 79.5,133.5 74.5,133.5 69.5,133.5C 66.8333,133.5 64.1667,133.5 61.5,133.5C 61.5,125.833 61.5,118.167 61.5,110.5C 64.1667,110.5 66.8333,110.5 69.5,110.5 Z"/></g>
<g><path style="opacity:1" fill="#00fbfe" d="M 69.5,110.5 C 71.8333,110.5 74.1667,110.5 76.5,110.5C 76.5,113.167 76.5,115.833 76.5,118.5C 79.1667,118.5 81.8333,118.5 84.5,118.5C 84.5,120.833 84.5,123.167 84.5,125.5C 79.5,125.5 74.5,125.5 69.5,125.5C 69.5,120.5 69.5,115.5 69.5,110.5 Z"/></g>
<g><path style="opacity:1" fill="#72202f" d="M 99.5,110.5 C 104.833,110.5 110.167,110.5 115.5,110.5C 115.5,113.167 115.5,115.833 115.5,118.5C 110.167,118.5 104.833,118.5 99.5,118.5C 99.5,115.833 99.5,113.167 99.5,110.5 Z"/></g>
<g><path style="opacity:1" fill="#72202f" d="M 84.5,118.5 C 89.5,118.5 94.5,118.5 99.5,118.5C 99.5,120.833 99.5,123.167 99.5,125.5C 94.5,125.5 89.5,125.5 84.5,125.5C 84.5,123.167 84.5,120.833 84.5,118.5 Z"/></g>
<g><path style="opacity:1" fill="#000000" d="M 99.5,118.5 C 104.833,118.5 110.167,118.5 115.5,118.5C 115.5,120.833 115.5,123.167 115.5,125.5C 110.167,125.5 104.833,125.5 99.5,125.5C 99.5,123.167 99.5,120.833 99.5,118.5 Z"/></g>
<g><path style="opacity:1" fill="#c73351" d="M 115.5,118.5 C 120.5,118.5 125.5,118.5 130.5,118.5C 130.5,120.833 130.5,123.167 130.5,125.5C 125.5,125.5 120.5,125.5 115.5,125.5C 115.5,123.167 115.5,120.833 115.5,118.5 Z"/></g>
<g><path style="opacity:1" fill="#000000" d="M 84.5,125.5 C 89.5,125.5 94.5,125.5 99.5,125.5C 99.5,128.167 99.5,130.833 99.5,133.5C 94.5,133.5 89.5,133.5 84.5,133.5C 84.5,130.833 84.5,128.167 84.5,125.5 Z"/></g>
<g><path style="opacity:1" fill="#d33655" d="M 99.5,125.5 C 104.833,125.5 110.167,125.5 115.5,125.5C 115.5,128.167 115.5,130.833 115.5,133.5C 110.167,133.5 104.833,133.5 99.5,133.5C 99.5,130.833 99.5,128.167 99.5,125.5 Z"/></g>
<g><path style="opacity:1" fill="#bc314c" d="M 38.5,133.5 C 38.5,136.167 38.5,138.833 38.5,141.5C 43.5,141.5 48.5,141.5 53.5,141.5C 53.5,154.167 53.5,166.833 53.5,179.5C 43.5,179.5 33.5,179.5 23.5,179.5C 23.5,164.167 23.5,148.833 23.5,133.5C 28.5,133.5 33.5,133.5 38.5,133.5 Z"/></g>
<g><path style="opacity:1" fill="#bc314c" d="M 61.5,133.5 C 64.1667,133.5 66.8333,133.5 69.5,133.5C 69.5,136.167 69.5,138.833 69.5,141.5C 66.8333,141.5 64.1667,141.5 61.5,141.5C 61.5,138.833 61.5,136.167 61.5,133.5 Z"/></g>
<g><path style="opacity:1" fill="#000000" d="M 69.5,133.5 C 74.5,133.5 79.5,133.5 84.5,133.5C 84.5,136.167 84.5,138.833 84.5,141.5C 79.5,141.5 74.5,141.5 69.5,141.5C 69.5,138.833 69.5,136.167 69.5,133.5 Z"/></g>
<g><path style="opacity:1" fill="#d33655" d="M 84.5,133.5 C 89.5,133.5 94.5,133.5 99.5,133.5C 99.5,136.167 99.5,138.833 99.5,141.5C 94.5,141.5 89.5,141.5 84.5,141.5C 84.5,138.833 84.5,136.167 84.5,133.5 Z"/></g>
<g><path style="opacity:1" fill="#d43655" d="M 69.5,141.5 C 74.5,141.5 79.5,141.5 84.5,141.5C 84.5,143.833 84.5,146.167 84.5,148.5C 79.5,148.5 74.5,148.5 69.5,148.5C 69.5,146.167 69.5,143.833 69.5,141.5 Z"/></g>
<g><path style="opacity:1" fill="#000000" d="M 84.5,141.5 C 89.5,141.5 94.5,141.5 99.5,141.5C 99.5,143.833 99.5,146.167 99.5,148.5C 94.5,148.5 89.5,148.5 84.5,148.5C 84.5,146.167 84.5,143.833 84.5,141.5 Z"/></g>
<g><path style="opacity:1" fill="#72202f" d="M 99.5,141.5 C 104.833,141.5 110.167,141.5 115.5,141.5C 115.5,151.5 115.5,161.5 115.5,171.5C 110.167,171.5 104.833,171.5 99.5,171.5C 99.5,174.167 99.5,176.833 99.5,179.5C 97.1667,179.5 94.8333,179.5 92.5,179.5C 92.5,174.5 92.5,169.5 92.5,164.5C 89.8333,164.5 87.1667,164.5 84.5,164.5C 81.8333,164.5 79.1667,164.5 76.5,164.5C 76.5,161.833 76.5,159.167 76.5,156.5C 79.1667,156.5 81.8333,156.5 84.5,156.5C 84.5,153.833 84.5,151.167 84.5,148.5C 89.5,148.5 94.5,148.5 99.5,148.5C 99.5,146.167 99.5,143.833 99.5,141.5 Z"/></g>
<g><path style="opacity:1" fill="#d73757" d="M 123.5,133.5 C 125.833,133.5 128.167,133.5 130.5,133.5C 130.5,143.833 130.5,154.167 130.5,164.5C 128.167,164.5 125.833,164.5 123.5,164.5C 123.5,154.167 123.5,143.833 123.5,133.5 Z"/></g>
<g><path style="opacity:1" fill="#bc314c" d="M 69.5,148.5 C 69.5,151.167 69.5,153.833 69.5,156.5C 66.8333,156.5 64.1667,156.5 61.5,156.5C 61.5,153.833 61.5,151.167 61.5,148.5C 64.1667,148.5 66.8333,148.5 69.5,148.5 Z"/></g>
<g><path style="opacity:1" fill="#1e1f1e" d="M 76.5,164.5 C 79.1667,164.5 81.8333,164.5 84.5,164.5C 84.5,169.5 84.5,174.5 84.5,179.5C 81.8333,179.5 79.1667,179.5 76.5,179.5C 76.5,174.5 76.5,169.5 76.5,164.5 Z"/></g>
<g><path style="opacity:1" fill="#45141c" d="M 84.5,164.5 C 87.1667,164.5 89.8333,164.5 92.5,164.5C 92.5,169.5 92.5,174.5 92.5,179.5C 89.8333,179.5 87.1667,179.5 84.5,179.5C 84.5,174.5 84.5,169.5 84.5,164.5 Z"/></g>
<g><path style="opacity:1" fill="#d43655" d="M 61.5,164.5 C 64.1667,164.5 66.8333,164.5 69.5,164.5C 69.5,169.5 69.5,174.5 69.5,179.5C 66.8333,179.5 64.1667,179.5 61.5,179.5C 61.5,174.5 61.5,169.5 61.5,164.5 Z"/></g>
<g><path style="opacity:1" fill="#dd00ed" d="M 82.5,198.5 C 83.5,198.5 84.5,198.5 85.5,198.5C 85.5,200.167 85.5,201.833 85.5,203.5C 87.8568,203.337 90.1902,203.503 92.5,204C 93.7914,207.455 93.7914,210.955 92.5,214.5C 91.6816,211.893 91.1816,209.226 91,206.5C 89.3005,205.594 87.4672,205.261 85.5,205.5C 85.5,208.5 85.5,211.5 85.5,214.5C 84.5,214.5 83.5,214.5 82.5,214.5C 82.5,209.167 82.5,203.833 82.5,198.5 Z"/></g>
<g><path style="opacity:1" fill="#ed00fe" d="M 28.5,199.5 C 29.6935,199.97 30.3601,200.97 30.5,202.5C 31.0466,205.826 31.5466,209.16 32,212.5C 33.4978,209.033 34.4978,205.366 35,201.5C 36.3957,199.473 38.0624,199.14 40,200.5C 42.6116,216.478 44.1116,216.145 44.5,199.5C 45.552,199.351 46.552,199.517 47.5,200C 46.8309,204.496 45.9976,208.996 45,213.5C 42.9783,214.991 41.3117,214.658 40,212.5C 39.6988,209.02 38.8655,205.687 37.5,202.5C 36.3732,206.135 35.3732,209.801 34.5,213.5C 32.9936,214.747 31.4936,214.747 30,213.5C 28.8776,208.898 28.3776,204.232 28.5,199.5 Z"/></g>
<g><path style="opacity:1" fill="#ed00fe" d="M 154.5,199.5 C 157.167,199.5 159.833,199.5 162.5,199.5C 162.5,200.5 162.5,201.5 162.5,202.5C 159.278,202.108 156.278,202.608 153.5,204C 156.574,204.958 159.574,206.125 162.5,207.5C 163.762,209.575 163.595,211.575 162,213.5C 158.606,214.456 155.106,214.789 151.5,214.5C 151.5,213.5 151.5,212.5 151.5,211.5C 154.5,211.5 157.5,211.5 160.5,211.5C 160.5,210.5 160.5,209.5 160.5,208.5C 157.398,208.846 154.565,208.179 152,206.5C 150.916,203.341 151.75,201.008 154.5,199.5 Z"/></g>
<g><path style="opacity:1" fill="#ed00fd" d="M 48.5,203.5 C 51.7766,203.216 54.9433,203.549 58,204.5C 58.4983,207.817 58.665,211.15 58.5,214.5C 55.2234,214.784 52.0567,214.451 49,213.5C 48.2571,211.559 48.4238,209.726 49.5,208C 51.9005,207.814 54.2338,207.314 56.5,206.5C 53.3837,206.08 50.7171,205.08 48.5,203.5 Z"/></g>
<g><path style="opacity:1" fill="#ec00fd" d="M 61.5,203.5 C 63.924,203.192 66.2573,203.526 68.5,204.5C 66.9547,205.452 65.288,205.785 63.5,205.5C 63.8174,208.572 63.4841,211.572 62.5,214.5C 61.5108,210.893 61.1774,207.226 61.5,203.5 Z"/></g>
<g><path style="opacity:1" fill="#e400f4" d="M 71.5,203.5 C 74.4475,203.223 77.2809,203.556 80,204.5C 80.7203,206.112 80.5536,207.612 79.5,209C 77.0995,209.186 74.7662,209.686 72.5,210.5C 72.7093,211.086 73.0426,211.586 73.5,212C 75.9005,212.186 78.2338,212.686 80.5,213.5C 70.7586,216.508 67.7586,213.175 71.5,203.5 Z"/></g>
<g><path style="opacity:1" fill="#ed00ff" d="M 97.5,203.5 C 100.448,203.223 103.281,203.556 106,204.5C 108.619,211.771 106.119,214.938 98.5,214C 96.2383,210.731 95.905,207.231 97.5,203.5 Z"/></g>
<g><path style="opacity:1" fill="#ed00fe" d="M 109.5,203.5 C 111.08,205.717 112.08,208.384 112.5,211.5C 114.644,212.953 116.477,212.62 118,210.5C 118.186,208.1 118.686,205.766 119.5,203.5C 122.42,211.534 119.754,215.034 111.5,214C 111,213.5 110.5,213 110,212.5C 109.502,209.518 109.335,206.518 109.5,203.5 Z"/></g>
<g><path style="opacity:1" fill="#ed00ff" d="M 123.5,203.5 C 133.277,203.647 133.611,204.647 124.5,206.5C 126.423,207.308 128.423,207.808 130.5,208C 131.833,210 131.833,212 130.5,214C 127.773,214.818 125.106,214.652 122.5,213.5C 124.743,212.526 127.076,212.192 129.5,212.5C 129.5,211.5 129.5,210.5 129.5,209.5C 123.591,210.926 121.591,208.926 123.5,203.5 Z"/></g>
<g><path style="opacity:1" fill="#e800f8" d="M 135.5,203.5 C 138.187,203.336 140.854,203.503 143.5,204C 144.833,205.667 144.833,207.333 143.5,209C 141.19,209.497 138.857,209.663 136.5,209.5C 136.5,210.5 136.5,211.5 136.5,212.5C 138.924,212.192 141.257,212.526 143.5,213.5C 140.628,214.783 137.795,214.783 135,213.5C 134.253,210.076 134.42,206.743 135.5,203.5 Z"/></g>
<g><path style="opacity:1" fill="#ed00ff" d="M 166.5,203.5 C 169.247,203.187 171.914,203.52 174.5,204.5C 172.257,205.474 169.924,205.808 167.5,205.5C 167.338,207.527 167.505,209.527 168,211.5C 170.147,212.113 172.314,212.779 174.5,213.5C 165.773,215.424 163.106,212.09 166.5,203.5 Z"/></g>
<g><path style="opacity:1" fill="#ed00fe" d="M 177.5,203.5 C 187.16,201.341 190.16,204.841 186.5,214C 183.571,214.777 180.737,214.61 178,213.5C 177.257,211.559 177.424,209.726 178.5,208C 180.9,207.814 183.234,207.314 185.5,206.5C 182.384,206.08 179.717,205.08 177.5,203.5 Z"/></g>
<g><path style="opacity:1" fill="#ed00ff" d="M 190.5,203.5 C 193.777,203.216 196.943,203.549 200,204.5C 200.824,207.882 200.657,211.216 199.5,214.5C 198.516,211.572 198.183,208.572 198.5,205.5C 196.5,205.5 194.5,205.5 192.5,205.5C 192.817,208.572 192.484,211.572 191.5,214.5C 190.511,210.893 190.177,207.226 190.5,203.5 Z"/></g>
<g><path style="opacity:1" fill="#ed00ff" d="M 203.5,203.5 C 213.191,201.522 216.525,205.188 213.5,214.5C 212.682,211.893 212.182,209.226 212,206.5C 209.959,205.577 207.792,205.244 205.5,205.5C 205.817,208.572 205.484,211.572 204.5,214.5C 203.511,210.893 203.177,207.226 203.5,203.5 Z"/></g>
<g><path style="opacity:1" fill="#e400f4" d="M 218.5,203.5 C 221.448,203.223 224.281,203.556 227,204.5C 227.72,206.112 227.554,207.612 226.5,209C 224.1,209.186 221.766,209.686 219.5,210.5C 219.709,211.086 220.043,211.586 220.5,212C 222.9,212.186 225.234,212.686 227.5,213.5C 217.759,216.508 214.759,213.175 218.5,203.5 Z"/></g>
<g><path style="opacity:1" fill="#e700f7" d="M 230.5,203.5 C 232.604,203.201 234.604,203.534 236.5,204.5C 235.311,205.429 233.978,205.762 232.5,205.5C 232.5,208.5 232.5,211.5 232.5,214.5C 231.5,214.5 230.5,214.5 229.5,214.5C 229.323,210.766 229.656,207.099 230.5,203.5 Z"/></g>
<g><path style="opacity:1" fill="#000000" d="M 72.5,205.5 C 74.604,205.201 76.604,205.534 78.5,206.5C 77.5,206.833 76.5,207.167 75.5,207.5C 73.9704,207.36 72.9704,206.693 72.5,205.5 Z"/></g>
<g><path style="opacity:1" fill="#030103" d="M 98.5,205.5 C 104.793,204.636 106.459,206.803 103.5,212C 101.888,212.72 100.388,212.554 99,211.5C 98.5045,209.527 98.3379,207.527 98.5,205.5 Z"/></g>
<g><path style="opacity:1" fill="#000000" d="M 136.5,205.5 C 138.604,205.201 140.604,205.534 142.5,206.5C 141.5,206.833 140.5,207.167 139.5,207.5C 137.97,207.36 136.97,206.693 136.5,205.5 Z"/></g>
<g><path style="opacity:1" fill="#000000" d="M 219.5,205.5 C 221.604,205.201 223.604,205.534 225.5,206.5C 224.5,206.833 223.5,207.167 222.5,207.5C 220.97,207.36 219.97,206.693 219.5,205.5 Z"/></g>
<g><path style="opacity:1" fill="#000000" d="M 50.5,209.5 C 52.5,209.5 54.5,209.5 56.5,209.5C 56.5,210.5 56.5,211.5 56.5,212.5C 54.8008,212.66 53.1341,212.494 51.5,212C 50.7476,211.329 50.4142,210.496 50.5,209.5 Z"/></g>
<g><path style="opacity:1" fill="#000000" d="M 179.5,209.5 C 181.5,209.5 183.5,209.5 185.5,209.5C 185.5,210.5 185.5,211.5 185.5,212.5C 183.5,212.5 181.5,212.5 179.5,212.5C 179.5,211.5 179.5,210.5 179.5,209.5 Z"/></g>
</svg>
